<mxfile host="Electron" modified="2023-11-10T15:44:29.758Z" agent="Mozilla/5.0 (X11; Linux x86_64) AppleWebKit/537.36 (KHTML, like Gecko) draw.io/22.0.3 Chrome/114.0.5735.289 Electron/25.8.4 Safari/537.36" etag="j_OGMGTlhuJDfsbUPxWq" version="22.0.3" type="device" pages="5">
  <diagram name="macchine fisiche" id="6VW3QYipwfL3n_vXmo3j">
    <mxGraphModel dx="1364" dy="843" grid="1" gridSize="10" guides="1" tooltips="1" connect="1" arrows="1" fold="1" page="1" pageScale="1" pageWidth="827" pageHeight="1169" math="0" shadow="0">
      <root>
        <mxCell id="0" />
        <mxCell id="1" parent="0" />
        <mxCell id="XKDXfcvJi0CT3PTC3gSu-1" value="LInux" style="rounded=0;whiteSpace=wrap;html=1;" vertex="1" parent="1">
          <mxGeometry x="160" y="220" width="230" height="350" as="geometry" />
        </mxCell>
        <mxCell id="XKDXfcvJi0CT3PTC3gSu-2" value="sql server" style="shape=cylinder3;whiteSpace=wrap;html=1;boundedLbl=1;backgroundOutline=1;size=15;" vertex="1" parent="1">
          <mxGeometry x="245" y="450" width="60" height="80" as="geometry" />
        </mxCell>
        <mxCell id="XKDXfcvJi0CT3PTC3gSu-3" value="nodejs" style="rounded=1;whiteSpace=wrap;html=1;" vertex="1" parent="1">
          <mxGeometry x="215" y="270" width="120" height="60" as="geometry" />
        </mxCell>
        <mxCell id="XKDXfcvJi0CT3PTC3gSu-4" value="LInux" style="rounded=0;whiteSpace=wrap;html=1;" vertex="1" parent="1">
          <mxGeometry x="470" y="220" width="230" height="350" as="geometry" />
        </mxCell>
        <mxCell id="XKDXfcvJi0CT3PTC3gSu-5" value="sql server" style="shape=cylinder3;whiteSpace=wrap;html=1;boundedLbl=1;backgroundOutline=1;size=15;" vertex="1" parent="1">
          <mxGeometry x="555" y="450" width="60" height="80" as="geometry" />
        </mxCell>
        <mxCell id="XKDXfcvJi0CT3PTC3gSu-6" value="nodejs" style="rounded=1;whiteSpace=wrap;html=1;" vertex="1" parent="1">
          <mxGeometry x="525" y="270" width="120" height="60" as="geometry" />
        </mxCell>
        <mxCell id="XKDXfcvJi0CT3PTC3gSu-8" value="ANSIBLE: CONFIGURATION MANAGEMENT" style="text;html=1;strokeColor=#b85450;fillColor=#f8cecc;align=center;verticalAlign=middle;whiteSpace=wrap;rounded=0;" vertex="1" parent="1">
          <mxGeometry x="270" y="720" width="320" height="30" as="geometry" />
        </mxCell>
        <mxCell id="rnUrskfmGGWwhqAoqDUc-2" value="&lt;h1&gt;macchine fisiche&lt;br&gt;&lt;/h1&gt;&lt;p&gt;&lt;/p&gt;&lt;ul&gt;&lt;li&gt;configurazione diretta del sistema fisico&lt;/li&gt;&lt;li&gt;configurazione manuale del software&amp;nbsp;&lt;/li&gt;&lt;li&gt;possibili differenze tra sistemi diversi&amp;nbsp;&lt;/li&gt;&lt;/ul&gt;&lt;p&gt;&lt;/p&gt;" style="text;html=1;strokeColor=none;fillColor=none;spacing=5;spacingTop=-20;whiteSpace=wrap;overflow=hidden;rounded=0;" vertex="1" parent="1">
          <mxGeometry x="160" y="70" width="580" height="120" as="geometry" />
        </mxCell>
      </root>
    </mxGraphModel>
  </diagram>
  <diagram name="macchine virtuali" id="IFVRY0FIdRn3WplPv0HC">
    <mxGraphModel dx="1364" dy="843" grid="1" gridSize="10" guides="1" tooltips="1" connect="1" arrows="1" fold="1" page="1" pageScale="1" pageWidth="827" pageHeight="1169" math="0" shadow="0">
      <root>
        <mxCell id="wCCl7UH5ed-ERenZK-SD-0" />
        <mxCell id="wCCl7UH5ed-ERenZK-SD-1" parent="wCCl7UH5ed-ERenZK-SD-0" />
        <mxCell id="wCCl7UH5ed-ERenZK-SD-2" value="" style="rounded=0;whiteSpace=wrap;html=1;" vertex="1" parent="wCCl7UH5ed-ERenZK-SD-1">
          <mxGeometry x="290" y="300" width="230" height="350" as="geometry" />
        </mxCell>
        <mxCell id="wCCl7UH5ed-ERenZK-SD-3" value="sql server" style="shape=cylinder3;whiteSpace=wrap;html=1;boundedLbl=1;backgroundOutline=1;size=15;" vertex="1" parent="wCCl7UH5ed-ERenZK-SD-1">
          <mxGeometry x="450" y="350" width="60" height="80" as="geometry" />
        </mxCell>
        <mxCell id="wCCl7UH5ed-ERenZK-SD-4" value="nodejs" style="rounded=1;whiteSpace=wrap;html=1;" vertex="1" parent="wCCl7UH5ed-ERenZK-SD-1">
          <mxGeometry x="310" y="360" width="120" height="60" as="geometry" />
        </mxCell>
        <mxCell id="wCCl7UH5ed-ERenZK-SD-5" value="" style="rounded=0;whiteSpace=wrap;html=1;" vertex="1" parent="wCCl7UH5ed-ERenZK-SD-1">
          <mxGeometry x="600" y="300" width="230" height="350" as="geometry" />
        </mxCell>
        <mxCell id="wCCl7UH5ed-ERenZK-SD-6" value="sql server" style="shape=cylinder3;whiteSpace=wrap;html=1;boundedLbl=1;backgroundOutline=1;size=15;" vertex="1" parent="wCCl7UH5ed-ERenZK-SD-1">
          <mxGeometry x="770" y="340" width="60" height="80" as="geometry" />
        </mxCell>
        <mxCell id="wCCl7UH5ed-ERenZK-SD-7" value="nodejs" style="rounded=1;whiteSpace=wrap;html=1;" vertex="1" parent="wCCl7UH5ed-ERenZK-SD-1">
          <mxGeometry x="620" y="350" width="120" height="60" as="geometry" />
        </mxCell>
        <mxCell id="_sLQ3FjvVlQ7ppYe2ciI-0" value="SISTEMA DI VITUALIZZAZIONE" style="rounded=0;whiteSpace=wrap;html=1;" vertex="1" parent="wCCl7UH5ed-ERenZK-SD-1">
          <mxGeometry x="294" y="690" width="536" height="60" as="geometry" />
        </mxCell>
        <mxCell id="_sLQ3FjvVlQ7ppYe2ciI-1" value="macchina&amp;nbsp; fisica" style="rounded=0;whiteSpace=wrap;html=1;" vertex="1" parent="wCCl7UH5ed-ERenZK-SD-1">
          <mxGeometry x="290" y="760" width="536" height="110" as="geometry" />
        </mxCell>
        <mxCell id="_sLQ3FjvVlQ7ppYe2ciI-2" value="kernel windows" style="rounded=0;whiteSpace=wrap;html=1;" vertex="1" parent="wCCl7UH5ed-ERenZK-SD-1">
          <mxGeometry x="290" y="490" width="230" height="160" as="geometry" />
        </mxCell>
        <mxCell id="_sLQ3FjvVlQ7ppYe2ciI-3" value="kernel linux" style="rounded=0;whiteSpace=wrap;html=1;" vertex="1" parent="wCCl7UH5ed-ERenZK-SD-1">
          <mxGeometry x="600" y="490" width="230" height="160" as="geometry" />
        </mxCell>
        <mxCell id="LZddXVgvpzEj_7XAVdJ0-0" value="&lt;h1&gt;macchine virtuali&lt;br&gt;&lt;/h1&gt;&lt;p&gt;&lt;/p&gt;&lt;ul&gt;&lt;li&gt;&lt;span style=&quot;background-color: initial;&quot;&gt;configurazione delle immagini di sistemi operativi con i relativi software&amp;nbsp;&lt;/span&gt;&lt;/li&gt;&lt;li&gt;&lt;span style=&quot;background-color: initial;&quot;&gt;facilemnte replicabili&amp;nbsp;&lt;/span&gt;&lt;/li&gt;&lt;li&gt;immagini contengono sia il kernel che la parte applicativa&amp;nbsp;&lt;/li&gt;&lt;/ul&gt;&lt;p&gt;&lt;/p&gt;" style="text;html=1;strokeColor=none;fillColor=none;spacing=5;spacingTop=-20;whiteSpace=wrap;overflow=hidden;rounded=0;" vertex="1" parent="wCCl7UH5ed-ERenZK-SD-1">
          <mxGeometry x="280" y="110" width="580" height="120" as="geometry" />
        </mxCell>
      </root>
    </mxGraphModel>
  </diagram>
  <diagram name="docker " id="Ole778graEUJjooohc7x">
    <mxGraphModel dx="1364" dy="843" grid="1" gridSize="10" guides="1" tooltips="1" connect="1" arrows="1" fold="1" page="1" pageScale="1" pageWidth="827" pageHeight="1169" math="0" shadow="0">
      <root>
        <mxCell id="cYr0tyrLQgnYsouYmoyX-0" />
        <mxCell id="cYr0tyrLQgnYsouYmoyX-1" parent="cYr0tyrLQgnYsouYmoyX-0" />
        <mxCell id="cYr0tyrLQgnYsouYmoyX-2" value="" style="rounded=0;whiteSpace=wrap;html=1;" vertex="1" parent="cYr0tyrLQgnYsouYmoyX-1">
          <mxGeometry x="290" y="280" width="230" height="180" as="geometry" />
        </mxCell>
        <mxCell id="cYr0tyrLQgnYsouYmoyX-3" value="sql server" style="shape=cylinder3;whiteSpace=wrap;html=1;boundedLbl=1;backgroundOutline=1;size=15;" vertex="1" parent="cYr0tyrLQgnYsouYmoyX-1">
          <mxGeometry x="450" y="350" width="60" height="80" as="geometry" />
        </mxCell>
        <mxCell id="cYr0tyrLQgnYsouYmoyX-4" value="nodejs" style="rounded=1;whiteSpace=wrap;html=1;" vertex="1" parent="cYr0tyrLQgnYsouYmoyX-1">
          <mxGeometry x="310" y="360" width="120" height="60" as="geometry" />
        </mxCell>
        <mxCell id="cYr0tyrLQgnYsouYmoyX-5" value="" style="rounded=0;whiteSpace=wrap;html=1;" vertex="1" parent="cYr0tyrLQgnYsouYmoyX-1">
          <mxGeometry x="597" y="280" width="230" height="180" as="geometry" />
        </mxCell>
        <mxCell id="cYr0tyrLQgnYsouYmoyX-6" value="sql server" style="shape=cylinder3;whiteSpace=wrap;html=1;boundedLbl=1;backgroundOutline=1;size=15;" vertex="1" parent="cYr0tyrLQgnYsouYmoyX-1">
          <mxGeometry x="750" y="340" width="60" height="80" as="geometry" />
        </mxCell>
        <mxCell id="cYr0tyrLQgnYsouYmoyX-7" value="nodejs" style="rounded=1;whiteSpace=wrap;html=1;" vertex="1" parent="cYr0tyrLQgnYsouYmoyX-1">
          <mxGeometry x="620" y="350" width="120" height="60" as="geometry" />
        </mxCell>
        <mxCell id="0Tu5Tvqr9kPb9tDYbHXi-0" style="edgeStyle=orthogonalEdgeStyle;rounded=0;orthogonalLoop=1;jettySize=auto;html=1;" edge="1" parent="cYr0tyrLQgnYsouYmoyX-1" source="cYr0tyrLQgnYsouYmoyX-10" target="cYr0tyrLQgnYsouYmoyX-12">
          <mxGeometry relative="1" as="geometry" />
        </mxCell>
        <mxCell id="0Tu5Tvqr9kPb9tDYbHXi-1" style="edgeStyle=orthogonalEdgeStyle;rounded=0;orthogonalLoop=1;jettySize=auto;html=1;" edge="1" parent="cYr0tyrLQgnYsouYmoyX-1" source="cYr0tyrLQgnYsouYmoyX-10" target="cYr0tyrLQgnYsouYmoyX-2">
          <mxGeometry relative="1" as="geometry" />
        </mxCell>
        <mxCell id="0Tu5Tvqr9kPb9tDYbHXi-2" style="edgeStyle=orthogonalEdgeStyle;rounded=0;orthogonalLoop=1;jettySize=auto;html=1;" edge="1" parent="cYr0tyrLQgnYsouYmoyX-1" source="cYr0tyrLQgnYsouYmoyX-10" target="cYr0tyrLQgnYsouYmoyX-5">
          <mxGeometry relative="1" as="geometry" />
        </mxCell>
        <mxCell id="cYr0tyrLQgnYsouYmoyX-10" value="docker" style="rounded=0;whiteSpace=wrap;html=1;" vertex="1" parent="cYr0tyrLQgnYsouYmoyX-1">
          <mxGeometry x="291" y="520" width="536" height="110" as="geometry" />
        </mxCell>
        <mxCell id="cYr0tyrLQgnYsouYmoyX-11" value="macchina linux" style="rounded=0;whiteSpace=wrap;html=1;" vertex="1" parent="cYr0tyrLQgnYsouYmoyX-1">
          <mxGeometry x="290" y="830" width="536" height="110" as="geometry" />
        </mxCell>
        <mxCell id="cYr0tyrLQgnYsouYmoyX-12" value="kernel linux" style="rounded=0;whiteSpace=wrap;html=1;" vertex="1" parent="cYr0tyrLQgnYsouYmoyX-1">
          <mxGeometry x="290" y="690" width="536" height="120" as="geometry" />
        </mxCell>
        <mxCell id="0Tu5Tvqr9kPb9tDYbHXi-4" value="" style="rounded=0;whiteSpace=wrap;html=1;" vertex="1" parent="cYr0tyrLQgnYsouYmoyX-1">
          <mxGeometry x="860" y="280" width="230" height="180" as="geometry" />
        </mxCell>
        <mxCell id="0Tu5Tvqr9kPb9tDYbHXi-5" value="sql server" style="shape=cylinder3;whiteSpace=wrap;html=1;boundedLbl=1;backgroundOutline=1;size=15;" vertex="1" parent="cYr0tyrLQgnYsouYmoyX-1">
          <mxGeometry x="1020" y="350" width="60" height="80" as="geometry" />
        </mxCell>
        <mxCell id="0Tu5Tvqr9kPb9tDYbHXi-6" value="nodejs" style="rounded=1;whiteSpace=wrap;html=1;" vertex="1" parent="cYr0tyrLQgnYsouYmoyX-1">
          <mxGeometry x="880" y="360" width="120" height="60" as="geometry" />
        </mxCell>
        <mxCell id="0Tu5Tvqr9kPb9tDYbHXi-7" value="" style="rounded=0;whiteSpace=wrap;html=1;" vertex="1" parent="cYr0tyrLQgnYsouYmoyX-1">
          <mxGeometry x="1167" y="280" width="230" height="180" as="geometry" />
        </mxCell>
        <mxCell id="0Tu5Tvqr9kPb9tDYbHXi-8" value="sql server" style="shape=cylinder3;whiteSpace=wrap;html=1;boundedLbl=1;backgroundOutline=1;size=15;" vertex="1" parent="cYr0tyrLQgnYsouYmoyX-1">
          <mxGeometry x="1320" y="340" width="60" height="80" as="geometry" />
        </mxCell>
        <mxCell id="0Tu5Tvqr9kPb9tDYbHXi-9" value="nodejs" style="rounded=1;whiteSpace=wrap;html=1;" vertex="1" parent="cYr0tyrLQgnYsouYmoyX-1">
          <mxGeometry x="1190" y="350" width="120" height="60" as="geometry" />
        </mxCell>
        <mxCell id="0Tu5Tvqr9kPb9tDYbHXi-10" style="edgeStyle=orthogonalEdgeStyle;rounded=0;orthogonalLoop=1;jettySize=auto;html=1;" edge="1" parent="cYr0tyrLQgnYsouYmoyX-1" source="0Tu5Tvqr9kPb9tDYbHXi-13" target="0Tu5Tvqr9kPb9tDYbHXi-15">
          <mxGeometry relative="1" as="geometry" />
        </mxCell>
        <mxCell id="0Tu5Tvqr9kPb9tDYbHXi-11" style="edgeStyle=orthogonalEdgeStyle;rounded=0;orthogonalLoop=1;jettySize=auto;html=1;" edge="1" parent="cYr0tyrLQgnYsouYmoyX-1" source="0Tu5Tvqr9kPb9tDYbHXi-13" target="0Tu5Tvqr9kPb9tDYbHXi-4">
          <mxGeometry relative="1" as="geometry" />
        </mxCell>
        <mxCell id="0Tu5Tvqr9kPb9tDYbHXi-12" style="edgeStyle=orthogonalEdgeStyle;rounded=0;orthogonalLoop=1;jettySize=auto;html=1;" edge="1" parent="cYr0tyrLQgnYsouYmoyX-1" source="0Tu5Tvqr9kPb9tDYbHXi-13" target="0Tu5Tvqr9kPb9tDYbHXi-7">
          <mxGeometry relative="1" as="geometry" />
        </mxCell>
        <mxCell id="0Tu5Tvqr9kPb9tDYbHXi-13" value="docker" style="rounded=0;whiteSpace=wrap;html=1;" vertex="1" parent="cYr0tyrLQgnYsouYmoyX-1">
          <mxGeometry x="861" y="520" width="529" height="80" as="geometry" />
        </mxCell>
        <mxCell id="0Tu5Tvqr9kPb9tDYbHXi-14" value="macchina" style="rounded=0;whiteSpace=wrap;html=1;" vertex="1" parent="cYr0tyrLQgnYsouYmoyX-1">
          <mxGeometry x="860" y="830" width="536" height="110" as="geometry" />
        </mxCell>
        <mxCell id="0Tu5Tvqr9kPb9tDYbHXi-15" value="kernel woindows" style="rounded=0;whiteSpace=wrap;html=1;" vertex="1" parent="cYr0tyrLQgnYsouYmoyX-1">
          <mxGeometry x="860" y="690" width="536" height="120" as="geometry" />
        </mxCell>
        <mxCell id="0Tu5Tvqr9kPb9tDYbHXi-16" value="Linux" style="text;html=1;strokeColor=none;fillColor=none;align=center;verticalAlign=middle;whiteSpace=wrap;rounded=0;" vertex="1" parent="cYr0tyrLQgnYsouYmoyX-1">
          <mxGeometry x="1252" y="300" width="60" height="30" as="geometry" />
        </mxCell>
        <mxCell id="0Tu5Tvqr9kPb9tDYbHXi-17" value="hiper visor" style="rounded=0;whiteSpace=wrap;html=1;" vertex="1" parent="cYr0tyrLQgnYsouYmoyX-1">
          <mxGeometry x="860" y="600" width="536" height="60" as="geometry" />
        </mxCell>
        <mxCell id="0Tu5Tvqr9kPb9tDYbHXi-18" value="Linux" style="text;html=1;strokeColor=none;fillColor=none;align=center;verticalAlign=middle;whiteSpace=wrap;rounded=0;" vertex="1" parent="cYr0tyrLQgnYsouYmoyX-1">
          <mxGeometry x="945" y="300" width="60" height="30" as="geometry" />
        </mxCell>
        <mxCell id="rQHFSkMK9DgstXdM4soC-0" value="MB" style="text;html=1;strokeColor=none;fillColor=none;align=center;verticalAlign=middle;whiteSpace=wrap;rounded=0;" vertex="1" parent="cYr0tyrLQgnYsouYmoyX-1">
          <mxGeometry x="210" y="480" width="60" height="30" as="geometry" />
        </mxCell>
        <mxCell id="lyW9MMnNJBlAeH-9Avt6-0" value="&lt;h1&gt;Docker&lt;br&gt;&lt;/h1&gt;&lt;p&gt;&lt;/p&gt;&lt;ul&gt;&lt;li&gt;&lt;span style=&quot;background-color: initial;&quot;&gt;sistem di virtualizzazione di sistemi operativi con i relativi software&amp;nbsp;&lt;/span&gt;&lt;/li&gt;&lt;li&gt;&lt;span style=&quot;background-color: initial;&quot;&gt;le immagini contengono solo il layer applicativo e sfruttano il kernel del sistema ospitante&lt;/span&gt;&lt;br&gt;&lt;/li&gt;&lt;/ul&gt;&lt;p&gt;&lt;/p&gt;" style="text;html=1;strokeColor=none;fillColor=none;spacing=5;spacingTop=-20;whiteSpace=wrap;overflow=hidden;rounded=0;" vertex="1" parent="cYr0tyrLQgnYsouYmoyX-1">
          <mxGeometry x="281" y="120" width="580" height="120" as="geometry" />
        </mxCell>
      </root>
    </mxGraphModel>
  </diagram>
  <diagram id="gGcRgoWok00SDbhPudby" name="immagini vs container">
    <mxGraphModel dx="2191" dy="2012" grid="1" gridSize="10" guides="1" tooltips="1" connect="1" arrows="1" fold="1" page="1" pageScale="1" pageWidth="827" pageHeight="1169" math="0" shadow="0">
      <root>
        <mxCell id="0" />
        <mxCell id="1" parent="0" />
        <mxCell id="HutIi6Q2dEgnsTW40-ww-5" style="edgeStyle=orthogonalEdgeStyle;rounded=0;orthogonalLoop=1;jettySize=auto;html=1;entryX=0;entryY=0.5;entryDx=0;entryDy=0;" edge="1" parent="1" source="HutIi6Q2dEgnsTW40-ww-1" target="HutIi6Q2dEgnsTW40-ww-4">
          <mxGeometry relative="1" as="geometry" />
        </mxCell>
        <mxCell id="HutIi6Q2dEgnsTW40-ww-1" value="immagine docker" style="rounded=1;whiteSpace=wrap;html=1;" vertex="1" parent="1">
          <mxGeometry x="30" y="330" width="120" height="60" as="geometry" />
        </mxCell>
        <mxCell id="HutIi6Q2dEgnsTW40-ww-2" value="container" style="ellipse;whiteSpace=wrap;html=1;aspect=fixed;fillColor=#fff2cc;strokeColor=#d6b656;" vertex="1" parent="1">
          <mxGeometry x="390" y="450" width="80" height="80" as="geometry" />
        </mxCell>
        <mxCell id="HutIi6Q2dEgnsTW40-ww-3" value="container" style="ellipse;whiteSpace=wrap;html=1;aspect=fixed;fillColor=#fff2cc;strokeColor=#d6b656;" vertex="1" parent="1">
          <mxGeometry x="390" y="300" width="80" height="80" as="geometry" />
        </mxCell>
        <mxCell id="HutIi6Q2dEgnsTW40-ww-4" value="container" style="ellipse;whiteSpace=wrap;html=1;aspect=fixed;fillColor=#dae8fc;strokeColor=#6c8ebf;" vertex="1" parent="1">
          <mxGeometry x="390" y="130" width="80" height="80" as="geometry" />
        </mxCell>
        <mxCell id="HutIi6Q2dEgnsTW40-ww-6" style="edgeStyle=orthogonalEdgeStyle;rounded=0;orthogonalLoop=1;jettySize=auto;html=1;entryX=0.075;entryY=0.763;entryDx=0;entryDy=0;entryPerimeter=0;" edge="1" parent="1" source="HutIi6Q2dEgnsTW40-ww-1" target="HutIi6Q2dEgnsTW40-ww-3">
          <mxGeometry relative="1" as="geometry" />
        </mxCell>
        <mxCell id="HutIi6Q2dEgnsTW40-ww-8" style="edgeStyle=orthogonalEdgeStyle;rounded=0;orthogonalLoop=1;jettySize=auto;html=1;entryX=0;entryY=0.75;entryDx=0;entryDy=0;entryPerimeter=0;" edge="1" parent="1" source="HutIi6Q2dEgnsTW40-ww-1" target="HutIi6Q2dEgnsTW40-ww-2">
          <mxGeometry relative="1" as="geometry" />
        </mxCell>
        <mxCell id="_AGU4NK0uYHc_5jEyd4Y-1" value="Dockerfile" style="text;html=1;strokeColor=none;fillColor=none;align=center;verticalAlign=middle;whiteSpace=wrap;rounded=0;" vertex="1" parent="1">
          <mxGeometry x="-130" y="345" width="60" height="30" as="geometry" />
        </mxCell>
        <mxCell id="_AGU4NK0uYHc_5jEyd4Y-2" value="docker build&amp;nbsp;" style="text;html=1;strokeColor=none;fillColor=none;align=center;verticalAlign=middle;whiteSpace=wrap;rounded=0;" vertex="1" parent="1">
          <mxGeometry x="-300" y="345" width="170" height="30" as="geometry" />
        </mxCell>
        <mxCell id="OGoP-pY6QFbHsvAbnuIP-2" value="" style="rounded=0;whiteSpace=wrap;html=1;" vertex="1" parent="1">
          <mxGeometry x="-280" y="-105" width="710" height="170" as="geometry" />
        </mxCell>
        <mxCell id="ioyid4oyld1pdELM3STv-2" style="edgeStyle=orthogonalEdgeStyle;rounded=0;orthogonalLoop=1;jettySize=auto;html=1;entryX=0;entryY=0.5;entryDx=0;entryDy=0;" edge="1" parent="1" source="OGoP-pY6QFbHsvAbnuIP-3" target="HutIi6Q2dEgnsTW40-ww-1">
          <mxGeometry relative="1" as="geometry">
            <Array as="points">
              <mxPoint x="10" y="-20" />
              <mxPoint x="10" y="360" />
            </Array>
          </mxGeometry>
        </mxCell>
        <mxCell id="ioyid4oyld1pdELM3STv-3" value="docker pull&amp;nbsp;" style="edgeLabel;html=1;align=center;verticalAlign=middle;resizable=0;points=[];" vertex="1" connectable="0" parent="ioyid4oyld1pdELM3STv-2">
          <mxGeometry x="-0.0286" y="1" relative="1" as="geometry">
            <mxPoint as="offset" />
          </mxGeometry>
        </mxCell>
        <mxCell id="OGoP-pY6QFbHsvAbnuIP-3" value="immagine docker" style="rounded=1;whiteSpace=wrap;html=1;" vertex="1" parent="1">
          <mxGeometry x="30" y="-50" width="120" height="60" as="geometry" />
        </mxCell>
        <mxCell id="OGoP-pY6QFbHsvAbnuIP-5" value="registry" style="text;html=1;strokeColor=none;fillColor=none;align=center;verticalAlign=middle;whiteSpace=wrap;rounded=0;" vertex="1" parent="1">
          <mxGeometry x="-230" y="30" width="60" height="30" as="geometry" />
        </mxCell>
        <mxCell id="ioyid4oyld1pdELM3STv-1" value="" style="endArrow=classic;html=1;rounded=0;" edge="1" parent="1" source="HutIi6Q2dEgnsTW40-ww-1" target="OGoP-pY6QFbHsvAbnuIP-3">
          <mxGeometry width="50" height="50" relative="1" as="geometry">
            <mxPoint x="170" y="310" as="sourcePoint" />
            <mxPoint x="170" y="-10" as="targetPoint" />
            <Array as="points" />
          </mxGeometry>
        </mxCell>
        <mxCell id="ioyid4oyld1pdELM3STv-4" value="docker push" style="edgeLabel;html=1;align=center;verticalAlign=middle;resizable=0;points=[];" vertex="1" connectable="0" parent="ioyid4oyld1pdELM3STv-1">
          <mxGeometry x="-0.0625" relative="1" as="geometry">
            <mxPoint as="offset" />
          </mxGeometry>
        </mxCell>
      </root>
    </mxGraphModel>
  </diagram>
  <diagram id="y9tIv7DTH746CxY6sjbG" name="comandi base">
    <mxGraphModel dx="1364" dy="843" grid="1" gridSize="10" guides="1" tooltips="1" connect="1" arrows="1" fold="1" page="1" pageScale="1" pageWidth="827" pageHeight="1169" math="0" shadow="0">
      <root>
        <mxCell id="0" />
        <mxCell id="1" parent="0" />
        <mxCell id="pM4w6LU6nwwkpGFAoGm4-1" value="&lt;div data-pm-slice=&quot;1 1 []&quot; data-en-clipboard=&quot;true&quot; style=&quot;font-size: 16px;&quot;&gt;&lt;span style=&quot;font-size: 16px;&quot;&gt;&lt;span style=&quot;font-size: 16px;&quot;&gt;&lt;span style=&quot;color: rgb(1, 1, 1); font-size: 16px;&quot;&gt;docker images : mostra tutte le immagini&amp;nbsp;&lt;/span&gt;&lt;/span&gt;&lt;/span&gt;&lt;/div&gt;&lt;div style=&quot;font-size: 16px;&quot;&gt;&lt;span style=&quot;font-size: 16px;&quot;&gt;&lt;span style=&quot;font-size: 16px;&quot;&gt;&lt;span style=&quot;color: rgb(51, 51, 51); font-size: 16px;&quot;&gt;docker run: &amp;nbsp;esegue un container con l&lt;/span&gt;&lt;/span&gt;&lt;span style=&quot;color: rgb(51, 51, 51); font-size: 16px;&quot;&gt;’&lt;/span&gt;&lt;span style=&quot;font-size: 16px;&quot;&gt;&lt;span style=&quot;color: rgb(51, 51, 51); font-size: 16px;&quot;&gt;immagine specificata&amp;nbsp;&lt;/span&gt;&lt;/span&gt;&lt;/span&gt;&lt;/div&gt;&lt;div style=&quot;font-size: 16px;&quot;&gt;&lt;span style=&quot;font-size: 16px;&quot;&gt;&lt;span style=&quot;font-size: 16px;&quot;&gt;&lt;span style=&quot;color: rgb(0, 0, 0); font-size: 16px;&quot;&gt;docker commit 9a136c570e12: crea una nuova immagine salvando lo stato del container&amp;nbsp;&lt;/span&gt;&lt;/span&gt;&lt;/span&gt;&lt;/div&gt;&lt;div style=&quot;font-size: 16px;&quot;&gt;&lt;span style=&quot;font-size: 16px;&quot;&gt;&lt;span style=&quot;font-size: 16px;&quot;&gt;&lt;span style=&quot;color: rgb(0, 0, 0); font-size: 16px;&quot;&gt;docker tag imageId imageName: assegna un nome all’immagine appena creata&amp;nbsp;&lt;/span&gt;&lt;/span&gt;&lt;/span&gt;&lt;/div&gt;&lt;div style=&quot;font-size: 16px;&quot;&gt;&lt;span style=&quot;font-size: 16px;&quot;&gt;&lt;span style=&quot;font-size: 16px;&quot;&gt;&lt;span style=&quot;color: rgb(1, 1, 1); font-size: 16px;&quot;&gt;docker ps : mostra istante in esecuzione&amp;nbsp;&lt;/span&gt;&lt;/span&gt;&lt;/span&gt;&lt;/div&gt;&lt;div style=&quot;font-size: 16px;&quot;&gt;&lt;span style=&quot;font-size: 16px;&quot;&gt;&lt;span style=&quot;font-size: 16px;&quot;&gt;&lt;span style=&quot;color: rgb(1, 1, 1); font-size: 16px;&quot;&gt;docker ps -a : mostra i container anche quelli non in esecuzione&amp;nbsp;&lt;/span&gt;&lt;/span&gt;&lt;/span&gt;&lt;/div&gt;&lt;div style=&quot;font-size: 16px;&quot;&gt;&lt;span style=&quot;font-size: 16px;&quot;&gt;&lt;span style=&quot;font-size: 16px;&quot;&gt;&lt;span style=&quot;color: rgb(1, 1, 1); font-size: 16px;&quot;&gt;docker --version&amp;nbsp;&lt;/span&gt;&lt;/span&gt;&lt;/span&gt;&lt;/div&gt;&lt;div style=&quot;font-size: 16px;&quot;&gt;&lt;span style=&quot;font-size: 16px;&quot;&gt;&lt;span style=&quot;font-size: 16px;&quot;&gt;&lt;span style=&quot;color: rgb(1, 1, 1); font-size: 16px;&quot;&gt;docker-compose&amp;nbsp;&lt;/span&gt;&lt;/span&gt;&lt;/span&gt;&lt;/div&gt;&lt;div style=&quot;font-size: 16px;&quot;&gt;&lt;span style=&quot;font-size: 16px;&quot;&gt;&lt;span style=&quot;font-size: 16px;&quot;&gt;&lt;span style=&quot;color: rgb(1, 1, 1); font-size: 16px;&quot;&gt;docker pull mongo:3.2-jessie&amp;nbsp;&amp;nbsp; &amp;nbsp;&lt;/span&gt;&lt;/span&gt;&lt;/span&gt;&lt;/div&gt;&lt;div style=&quot;font-size: 16px;&quot;&gt;&lt;span style=&quot;font-size: 16px;&quot;&gt;&lt;span style=&quot;font-size: 16px;&quot;&gt;&lt;span style=&quot;color: rgb(51, 51, 51); font-size: 16px;&quot;&gt;docker run --name some-nginx -d -p 8080:80 nginx:1.15.7-alpine&lt;/span&gt;&lt;/span&gt;&lt;/span&gt;&lt;span style=&quot;font-size: 16px;&quot;&gt;&lt;span style=&quot;font-size: 16px;&quot;&gt;&lt;span style=&quot;color: rgb(1, 1, 1); font-size: 16px;&quot;&gt;&amp;nbsp;&amp;nbsp;&amp;nbsp; &amp;nbsp;&amp;nbsp;&amp;nbsp; &amp;nbsp;&lt;/span&gt;&lt;/span&gt;&lt;/span&gt;&lt;/div&gt;&lt;div style=&quot;font-size: 16px;&quot;&gt;&lt;span style=&quot;font-size: 16px;&quot;&gt;&lt;span style=&quot;font-size: 16px;&quot;&gt;&lt;span style=&quot;color: rgb(1, 1, 1); font-size: 16px;&quot;&gt;docker stop : terminare container&amp;nbsp;&lt;/span&gt;&lt;/span&gt;&lt;/span&gt;&lt;/div&gt;&lt;div style=&quot;font-size: 16px;&quot;&gt;&lt;span style=&quot;font-size: 16px;&quot;&gt;&lt;span style=&quot;font-size: 16px;&quot;&gt;&lt;span style=&quot;color: rgb(1, 1, 1); font-size: 16px;&quot;&gt;docker rm nome-container : cancella il container&amp;nbsp;&lt;/span&gt;&lt;/span&gt;&lt;/span&gt;&lt;/div&gt;" style="text;whiteSpace=wrap;html=1;fontFamily=Courier New;fontSize=16;" vertex="1" parent="1">
          <mxGeometry x="10" y="150" width="1040" height="230" as="geometry" />
        </mxCell>
      </root>
    </mxGraphModel>
  </diagram>
</mxfile>
